<svg xmlns="http://www.w3.org/2000/svg" width="30.5" height="30.5" viewBox="0 0 30.5 30.5"><path d="M23.394,5.277a1.83,1.83,0,1,0,1.294.536,1.83,1.83,0,0,0-1.294-.536Zm7.015,3.69a11.571,11.571,0,0,0-.7-3.706,7.534,7.534,0,0,0-1.769-2.7,7.167,7.167,0,0,0-2.7-1.754A11.133,11.133,0,0,0,21.533.091C19.917,0,19.4,0,15.25,0S10.583,0,8.967.091A11.132,11.132,0,0,0,5.261.808a7.289,7.289,0,0,0-2.7,1.754,7.168,7.168,0,0,0-1.754,2.7A11.132,11.132,0,0,0,.091,8.967C0,10.583,0,11.1,0,15.25s0,4.667.091,6.283a11.133,11.133,0,0,0,.717,3.706,7.167,7.167,0,0,0,1.754,2.7,7.289,7.289,0,0,0,2.7,1.754,11.134,11.134,0,0,0,3.706.717c1.616.091,2.135.091,6.283.091s4.667,0,6.283-.091a11.134,11.134,0,0,0,3.706-.717,7.167,7.167,0,0,0,2.7-1.754,7.4,7.4,0,0,0,1.769-2.7,11.571,11.571,0,0,0,.7-3.706c0-1.617.091-2.135.091-6.283s0-4.667-.091-6.283ZM27.663,21.35a8.554,8.554,0,0,1-.519,2.837A4.667,4.667,0,0,1,26,25.94a4.867,4.867,0,0,1-1.754,1.144,8.554,8.554,0,0,1-2.837.519c-1.525.076-2.089.091-6.1.091s-4.575,0-6.1-.091a8.738,8.738,0,0,1-2.958-.458A4.986,4.986,0,0,1,4.575,26a4.575,4.575,0,0,1-1.129-1.754,8.448,8.448,0,0,1-.61-2.9c0-1.525-.091-2.089-.091-6.1s0-4.575.091-6.1a8.448,8.448,0,0,1,.534-2.9,4.575,4.575,0,0,1,1.2-1.677,4.789,4.789,0,0,1,1.677-1.22,8.738,8.738,0,0,1,2.9-.519c1.525,0,2.089-.091,6.1-.091s4.575,0,6.1.091a8.555,8.555,0,0,1,2.837.519A4.667,4.667,0,0,1,26,4.575a4.666,4.666,0,0,1,1.144,1.677,8.553,8.553,0,0,1,.519,2.9c.076,1.525.092,2.089.092,6.1S27.74,19.825,27.663,21.35ZM15.25,7.427a7.808,7.808,0,1,0,3,.587,7.823,7.823,0,0,0-3-.587Zm0,12.9a5.079,5.079,0,1,1,1.943-.387,5.078,5.078,0,0,1-1.943.387Z"/></svg>