<svg xmlns="http://www.w3.org/2000/svg" width="30.5" height="30.5" viewBox="0 0 30.5 30.5"><defs><style>.a{fill-rule:evenodd;}</style></defs><g transform="translate(-1704 -9288.994)"><g transform="translate(1704 9288.994)"><path class="a" d="M13.354,29.338V15.746H8.993V29.338ZM11.336,13.687A2.256,2.256,0,0,0,13.7,11.343,2.251,2.251,0,0,0,11.36,9,2.257,2.257,0,0,0,9,11.343a2.243,2.243,0,0,0,2.3,2.343h.032Z" transform="translate(-3.916 -3.915)"/><path class="a" d="M23.5,14.695A4.424,4.424,0,0,0,19.556,16.9v-1.89H15.187V28.6h4.369V20.861a2.9,2.9,0,0,1,.151-1.072,2.39,2.39,0,0,1,2.241-1.612c1.581,0,2.217,1.216,2.217,3V28.6h4.369V20.662c0-4.076-2.16-5.966-5.037-5.966Z" transform="translate(-3.112 -3.176)"/><path d="M32.56,4.5H7.106A2.488,2.488,0,0,0,4.5,6.875V32.386A2.684,2.684,0,0,0,7.106,35H32.552A2.547,2.547,0,0,0,35,32.386V6.875A2.339,2.339,0,0,0,32.56,4.5Zm-.254,27.965H7.289a.242.242,0,0,1-.246-.246V7.2A.165.165,0,0,1,7.2,7.042H32.307a.171.171,0,0,1,.159.159V32.307a.171.171,0,0,1-.159.159Z" transform="translate(-4.5 -4.5)"/></g></g></svg>