<svg xmlns="http://www.w3.org/2000/svg" width="61" height="36.6" viewBox="0 0 61 36.6"><defs><style>.a{fill:#07a9e2;}.b{fill:#009ddd;}.c{fill:#0284cc;}.d{fill:#ff2957;}.e{fill:#ed1c2e;}.f{fill:#0466b5;}.g{fill:#fff;}.h{fill:#d1094b;}.i{fill:#dce5e5;}</style></defs><g transform="translate(0 0.001)"><path class="a" d="M31.584,132.653a17.885,17.885,0,0,0,0-27.109A19.291,19.291,0,0,0,18.95,100.8C8.523,100.8,0,109.029,0,119.1s8.523,18.2,18.95,18.2a18.724,18.724,0,0,0,12.633-4.647Z" transform="translate(0 -100.801)"/><path class="b" d="M0,119.1c0,10.069,8.523,18.2,18.95,18.2a18.615,18.615,0,0,0,12.633-4.744h0a17.78,17.78,0,0,0,0-27.012A19.291,19.291,0,0,0,18.95,100.8" transform="translate(0 -100.801)"/><path class="c" d="M89.661,105.544A19.291,19.291,0,0,0,77.028,100.8h-.9a22.049,22.049,0,0,0-.1,36.5h.9a18.615,18.615,0,0,0,12.633-4.744,17.874,17.874,0,0,0,.1-27.012Z" transform="translate(-58.078 -100.801)"/><path class="d" d="M224.149,100.8a19.06,19.06,0,0,0-12.734,4.744,17.676,17.676,0,0,0-1.905,1.937h3.81a13.842,13.842,0,0,1,1.4,1.937h-6.718a19.015,19.015,0,0,0-1.1,1.937h8.924a15.832,15.832,0,0,1,.8,1.937H206.2c-.2.678-.4,1.259-.6,1.937h11.631a16.4,16.4,0,0,1,.4,3.873,16.124,16.124,0,0,1-1,5.81H206.2a15.827,15.827,0,0,0,.8,1.937h8.924a12.283,12.283,0,0,1-1.1,1.937h-6.718a13.842,13.842,0,0,0,1.4,1.937h3.81a17.675,17.675,0,0,1-1.905,1.937,19.557,19.557,0,0,0,12.734,4.744c10.428,0,18.85-8.133,18.85-18.2a18.612,18.612,0,0,0-18.85-18.4Z" transform="translate(-181.999 -100.801)"/><path class="e" d="M224.149,100.8h0a19.06,19.06,0,0,0-12.734,4.744,17.676,17.676,0,0,0-1.905,1.937h3.81a13.842,13.842,0,0,1,1.4,1.937h-6.718a19.015,19.015,0,0,0-1.1,1.937h8.924a15.832,15.832,0,0,1,.8,1.937H206.2c-.2.678-.4,1.259-.6,1.937h11.631a16.4,16.4,0,0,1,.4,3.873,16.124,16.124,0,0,1-1,5.81H206.2a15.827,15.827,0,0,0,.8,1.937h8.924a12.283,12.283,0,0,1-1.1,1.937h-6.718a13.842,13.842,0,0,0,1.4,1.937h3.81a17.675,17.675,0,0,1-1.905,1.937,19.557,19.557,0,0,0,12.734,4.744c10.428,0,18.85-8.133,18.85-18.2" transform="translate(-181.999 -100.801)"/><path class="f" d="M252,166.774A17.523,17.523,0,0,0,252,140v26.774Z" transform="translate(-221.618 -135.088)"/><path class="g" d="M452,280.6a.6.6,0,1,1,.6.6.647.647,0,0,1-.6-.6Zm.6.5c.3,0,.4-.2.4-.5a.367.367,0,0,0-.4-.4.459.459,0,0,0-.5.4.644.644,0,0,0,.5.5Zm0-.3h-.1v-.5h.3l.1.1c0,.1,0,.1-.1.1l.1.2h-.1l-.1-.2h-.1v.3Zm0-.3h.1v-.1h-.1v.1Z" transform="translate(-397.517 -258.337)"/><path class="h" d="M211.415,106.849a17.674,17.674,0,0,0-1.905,1.936h3.81a13.841,13.841,0,0,1,1.4,1.936h-6.718a19.012,19.012,0,0,0-1.1,1.936h8.924a15.826,15.826,0,0,1,.8,1.936H206.2c-.2.678-.4,1.258-.6,1.936h11.631a16.4,16.4,0,0,1,.4,3.872,16.119,16.119,0,0,1-1,5.808H206.2a15.822,15.822,0,0,0,.8,1.936h8.924a12.279,12.279,0,0,1-1.1,1.936h-6.718a13.838,13.838,0,0,0,1.4,1.936h3.81a17.672,17.672,0,0,1-1.905,1.936,19.559,19.559,0,0,0,12.734,4.744h.9a22.019,22.019,0,0,0,0-36.4h-.9A18.439,18.439,0,0,0,211.415,106.849Z" transform="translate(-181.999 -102.1)"/><path class="g" d="M60.627,222.425H58.221l1.4-7.319-3.208,7.319H54.31l-.4-7.319-1.4,7.319H50.4l1.8-9.625h3.71l.2,6.016,2.607-6.016h3.81Z" transform="translate(-44.083 -199.409)"/><g transform="translate(13.026 13.484)"><path class="i" d="M112.9,218.914l1.4-3.108-1.1,5.815a9.388,9.388,0,0,0,.4,1.6h1.6l1.8-9.625H113.5a19.371,19.371,0,0,0-.7,4.913C112.9,218.613,112.9,218.714,112.9,218.914Z" transform="translate(-112.8 -213.6)"/><path class="i" d="M317.109,223.025a5.562,5.562,0,0,1-1.7.3c-1.2,0-1.8-.6-1.8-1.7a1.958,1.958,0,0,1,.1-.7l.1-.8.1-.6L315,213.6h2.306l-.3,1.8h1.2l-.3,1.8h-1.2l-.6,3.208a1.01,1.01,0,0,1-.1.3c0,.4.3.6.8.6.3,0,.5,0,.6-.1l-.3,1.8Z" transform="translate(-288.433 -213.6)"/><path class="i" d="M354.116,226.6c-.2-.1-.2-.1-.3-.1s-.2,0-.2-.1h-.3c-.8,0-1.3.3-2.005,1.3l.2-1.2H349.4l-1.4,7.821h2.406c.8-4.813,1.2-5.615,2.306-5.615h.3l.3.1.8-2.206Z" transform="translate(-318.522 -224.796)"/><path class="i" d="M260.9,229.007q0,1.5,1.8,2.106c1,.4,1.1.5,1.1.9,0,.5-.4.7-1.4.7a7.632,7.632,0,0,1-2.106-.3l-.3,1.8h.1l.4.1h.6a7.2,7.2,0,0,0,1.3.1c2.507,0,3.71-.8,3.71-2.607,0-1.1-.5-1.7-1.7-2.206-1-.4-1.1-.5-1.1-.8q0-.6,1.2-.6a10.932,10.932,0,0,1,1.7.1l.3-1.8a14.81,14.81,0,0,0-2.106-.1c-2.607,0-3.509,1.2-3.509,2.607Z" transform="translate(-241.551 -224.796)"/><path class="i" d="M147.317,233.621h-1.905v-.8a3.336,3.336,0,0,1-2.507.9,2,2,0,0,1-2.106-2.106c0-1.905,1.5-3.008,4.111-3.008h1a1.342,1.342,0,0,0,.1-.5c0-.5-.4-.7-1.5-.7a10.1,10.1,0,0,0-1.905.2l-.3.1h-.2l.3-1.7a10.467,10.467,0,0,1,2.807-.4c2.005,0,3.108.8,3.108,2.306a6.024,6.024,0,0,1-.2,1.6l-.5,2.807-.1.5-.1.4v.3l-.1.1Zm-1.7-3.509h-.5c-1.3,0-2.005.4-2.005,1.2a.738.738,0,0,0,.8.8,1.78,1.78,0,0,0,1.7-2.005Z" transform="translate(-137.291 -224.096)"/><path class="i" d="M209.617,233.421a9.889,9.889,0,0,1-2.406.3c-2.607,0-4.011-1.2-4.011-3.509,0-2.707,1.7-4.612,4.111-4.612,1.905,0,3.108,1.1,3.108,2.807a7.406,7.406,0,0,1-.3,1.905h-4.712v.3c0,.9.7,1.4,2.005,1.4a4.953,4.953,0,0,0,2.406-.5l-.2,1.905Zm-1.2-4.612v-.4a.978.978,0,0,0-1.1-1,1.587,1.587,0,0,0-1.5,1.4Z" transform="translate(-191.87 -224.096)"/></g><g transform="translate(46.562 14.955)"><path class="g" d="M397.122,230.112c-.4,2.607-2.206,3.71-4.612,3.71a3.346,3.346,0,0,1-3.71-3.61,4.368,4.368,0,0,1,4.612-4.612,3.423,3.423,0,0,1,3.71,3.509v1Zm-2.507-1c0-.8-.3-1.5-1.3-1.5-1.2,0-1.905,1.4-1.905,2.707,0,1,.5,1.7,1.3,1.7a2.325,2.325,0,0,0,1.8-1.905,3.763,3.763,0,0,0,.1-1Z" transform="translate(-388.8 -225.6)"/><path class="g" d="M389.075,252.806a16.4,16.4,0,0,0,.2-2.206v-.2a7.794,7.794,0,0,0-.2,1.6A1.1,1.1,0,0,0,389.075,252.806Z" transform="translate(-388.975 -247.292)"/></g></g></svg>