<svg xmlns="http://www.w3.org/2000/svg" width="566" height="261" viewBox="0 0 566 261"><defs><style>.a{fill:#fff;stroke:#acd5b5;stroke-width:3px;}.b{stroke:none;}.c{fill:none;}</style></defs><g class="a"><rect class="b" width="566" height="261" rx="6"/><rect class="c" x="1.5" y="1.5" width="563" height="258" rx="4.5"/></g><path d="M138.732,0H12.911A13.025,13.025,0,0,0,0,12.911V87.089A13.025,13.025,0,0,0,12.911,100H138.732a13.025,13.025,0,0,0,12.911-12.911V12.911A12.726,12.726,0,0,0,138.732,0ZM18.545,18.779H37.324a7.564,7.564,0,0,1,7.512,7.512A7.416,7.416,0,0,1,37.324,33.8H18.545a7.564,7.564,0,0,1-7.512-7.512A7.416,7.416,0,0,1,18.545,18.779Zm122.3,52.347H11.033V50H140.845Z" transform="translate(207 81)"/></svg>