<svg xmlns="http://www.w3.org/2000/svg" width="122" height="36.987" viewBox="0 0 122 36.987"><defs><style>.a{fill:#3c58bf;}.b{fill:#293688;}.c{fill:#ffbc00;}.d{fill:#f7981d;}.e{fill:#ed7c00;}.f{fill:#051244;}</style></defs><path class="a" d="M184.8,215.257,191,180.4h9.683l-6,34.857Z" transform="translate(-140.067 -179.238)"/><path class="b" d="M184.8,215.257l7.94-34.857h7.94l-6,34.857Z" transform="translate(-140.067 -179.238)"/><path class="a" d="M277.629,177.149a24.562,24.562,0,0,0-8.908-1.549c-9.683,0-16.654,4.841-16.654,11.813,0,5.229,4.841,7.94,8.714,9.683s5.035,2.9,5.035,4.454c0,2.324-3.1,3.486-5.81,3.486a21.049,21.049,0,0,1-9.3-1.936l-1.356-.581L248,210.457a31.4,31.4,0,0,0,11.038,1.937c10.263,0,17.041-4.841,17.041-12.2,0-4.067-2.517-7.165-8.327-9.683-3.486-1.743-5.616-2.711-5.616-4.454,0-1.549,1.743-3.1,5.616-3.1a17.761,17.761,0,0,1,7.359,1.356l.968.387,1.549-7.552Z" transform="translate(-187.968 -175.6)"/><path class="b" d="M277.629,177.149a24.562,24.562,0,0,0-8.908-1.549c-9.683,0-14.911,4.841-14.911,11.813,0,5.229,3.1,7.94,6.971,9.683s5.035,2.9,5.035,4.454c0,2.324-3.1,3.486-5.81,3.486a21.049,21.049,0,0,1-9.3-1.936l-1.356-.581L248,210.457a31.4,31.4,0,0,0,11.038,1.937c10.263,0,17.041-4.841,17.041-12.2,0-4.067-2.517-7.165-8.327-9.683-3.486-1.743-5.616-2.711-5.616-4.454,0-1.549,1.743-3.1,5.616-3.1a17.761,17.761,0,0,1,7.359,1.356l.968.387,1.549-7.552Z" transform="translate(-187.968 -175.6)"/><path class="a" d="M377.959,180.4c-2.324,0-4.067.194-5.035,2.517L358.4,215.257h10.457l1.936-5.81h12.394l1.162,5.81h9.3L385.511,180.4ZM373.5,203.638c.581-1.743,3.873-10.264,3.873-10.264s.775-2.13,1.356-3.486l.581,3.292s1.937,8.714,2.324,10.651H373.5Z" transform="translate(-271.644 -179.238)"/><path class="b" d="M380.283,180.4c-2.324,0-4.067.194-5.035,2.517L358.4,215.257h10.457l1.937-5.81h12.394l1.162,5.81h9.3L385.511,180.4ZM373.5,203.638c.775-1.937,3.873-10.264,3.873-10.264s.775-2.13,1.356-3.486l.581,3.292s1.936,8.714,2.324,10.651H373.5Z" transform="translate(-271.644 -179.238)"/><path class="a" d="M65.724,205.406l-.968-5.035c-1.743-5.81-7.359-12.2-13.556-15.3l8.714,30.984H70.371L86.057,181.2H75.6Z" transform="translate(-38.806 -179.844)"/><path class="b" d="M65.724,205.406l-.968-5.035c-1.743-5.81-7.359-12.2-13.556-15.3l8.714,30.984H70.371L86.057,181.2H77.537Z" transform="translate(-38.806 -179.844)"/><path class="c" d="M0,180.4l1.743.387c12.394,2.9,20.914,10.263,24.206,18.978L22.463,183.3c-.581-2.324-2.324-2.9-4.454-2.9Z" transform="translate(0 -179.238)"/><path class="d" d="M0,180.4H0c12.394,2.9,22.657,10.457,25.949,19.171l-3.292-13.749a4.727,4.727,0,0,0-4.648-3.679Z" transform="translate(0 -179.238)"/><path class="e" d="M0,180.4H0c12.394,2.9,22.657,10.457,25.949,19.171l-2.324-7.552c-.581-2.324-1.356-4.648-4.067-5.616Z" transform="translate(0 -179.238)"/><g transform="translate(12.587 5.035)"><path class="f" d="M76.013,215.765l-6.584-6.584-3.1,7.359-.775-4.841C63.813,205.889,58.2,199.5,52,196.4l8.714,30.984H71.171Z" transform="translate(-52 -196.4)"/><path class="f" d="M194.676,297.721l-8.327-8.521-1.549,8.521Z" transform="translate(-152.654 -266.737)"/><path class="f" d="M264.848,274.8h0c.775.775,1.162,1.356.968,2.13,0,2.324-3.1,3.486-5.81,3.486a21.048,21.048,0,0,1-9.3-1.936l-1.356-.581L248,285.838a31.4,31.4,0,0,0,11.038,1.937c6.2,0,11.232-1.743,14.137-4.841Z" transform="translate(-200.556 -255.822)"/><path class="f" d="M364,244.968h9.1l1.936-5.81h12.394l1.162,5.81h9.3L394.6,230.832,382.978,219.6l.581,3.1s1.937,8.714,2.324,10.651h-8.133c.775-1.937,3.873-10.263,3.873-10.263s.775-2.13,1.356-3.486" transform="translate(-288.476 -213.984)"/></g></svg>