<svg xmlns="http://www.w3.org/2000/svg" width="30.5" height="30.5" viewBox="0 0 30.5 30.5"><g transform="translate(-267 -246.994)"><path d="M18.248,23.332V20.214q0-.993-.576-.993a.931.931,0,0,0-.655.318v4.448a.931.931,0,0,0,.655.318q.576,0,.576-.973ZM21.9,20.909h1.311v-.675q0-1.012-.655-1.012T21.9,20.234v.675ZM10.564,15.627v1.39H8.975v8.4H7.506v-8.4H5.958v-1.39h4.607Zm3.991,2.5v7.288h-1.33v-.795a2.111,2.111,0,0,1-1.509.894.781.781,0,0,1-.834-.556,3.486,3.486,0,0,1-.119-1.073V18.129h1.311V23.49a3.046,3.046,0,0,0,.019.516q.019.3.3.3.4,0,.834-.616V18.129h1.33Zm5,2.2v2.9a5.179,5.179,0,0,1-.139,1.45,1.017,1.017,0,0,1-1.052.834,1.8,1.8,0,0,1-1.35-.814v.715h-1.33v-9.79h1.33v3.2a1.766,1.766,0,0,1,1.35-.795,1.017,1.017,0,0,1,1.052.834,5.279,5.279,0,0,1,.139,1.469Zm4.984,2.561v.179a6.613,6.613,0,0,1-.04.854,1.861,1.861,0,0,1-.3.795,1.792,1.792,0,0,1-1.589.795,1.906,1.906,0,0,1-1.608-.755,2.794,2.794,0,0,1-.417-1.708V20.493a2.9,2.9,0,0,1,.4-1.708,1.888,1.888,0,0,1,1.589-.755,1.783,1.783,0,0,1,1.549.755,2.9,2.9,0,0,1,.417,1.708V22H21.9v1.29q0,1.012.675,1.012a.574.574,0,0,0,.6-.516q0-.019.01-.139t.01-.328v-.427h1.35ZM15.587,6.533v3.1q0,1.012-.635,1.012T14.316,9.63v-3.1q0-1.033.635-1.033T15.587,6.533ZM26.171,20.691a25.424,25.424,0,0,0-.377-5.163,2.716,2.716,0,0,0-.854-1.46,2.68,2.68,0,0,0-1.509-.685,81.58,81.58,0,0,0-8.181-.3,81.311,81.311,0,0,0-8.161.3,2.649,2.649,0,0,0-1.519.685,2.743,2.743,0,0,0-.844,1.46,24.835,24.835,0,0,0-.4,5.163,24.321,24.321,0,0,0,.4,5.163A2.788,2.788,0,0,0,5.57,27.3a2.605,2.605,0,0,0,1.5.695q2.72.3,8.181.3t8.181-.3a2.605,2.605,0,0,0,1.5-.695,2.788,2.788,0,0,0,.844-1.45,24.321,24.321,0,0,0,.4-5.163ZM11.179,7.764l1.787-5.878H11.476L10.464,5.758,9.412,1.886H7.863q.139.457.457,1.37L8.8,4.626A27.291,27.291,0,0,1,9.71,7.763v3.991h1.469Zm5.738,1.608V6.791A2.944,2.944,0,0,0,16.5,5.064a1.848,1.848,0,0,0-1.549-.755,1.783,1.783,0,0,0-1.549.755,2.944,2.944,0,0,0-.417,1.727V9.373A2.944,2.944,0,0,0,13.4,11.1a1.783,1.783,0,0,0,1.549.755A1.848,1.848,0,0,0,16.5,11.1a2.834,2.834,0,0,0,.417-1.727Zm3.594,2.383h1.33V4.408h-1.33v5.62q-.437.616-.834.616-.3,0-.318-.318a3.056,3.056,0,0,1-.019-.516v-5.4H18.01v5.818a3.7,3.7,0,0,0,.119,1.092.836.836,0,0,0,.854.536,2.218,2.218,0,0,0,1.529-.894v.795ZM30.5,5.719V24.781A5.727,5.727,0,0,1,24.781,30.5H5.719a5.51,5.51,0,0,1-4.041-1.677A5.5,5.5,0,0,1,0,24.781V5.719A5.51,5.51,0,0,1,1.677,1.677,5.5,5.5,0,0,1,5.719,0H24.781a5.51,5.51,0,0,1,4.041,1.678A5.5,5.5,0,0,1,30.5,5.719Z" transform="translate(267 246.994)"/></g></svg>