<svg xmlns="http://www.w3.org/2000/svg" width="61" height="36.206" viewBox="0 0 61 36.206"><defs><style>.a{fill:#e52836;}.b{fill:#fff;}.c{fill:#f7142f;}</style></defs><g transform="translate(0 0.001)"><path class="a" d="M61,118.9a18.118,18.118,0,0,0-18.1-18.1,17.932,17.932,0,0,0-11.413,4.034A18.408,18.408,0,0,1,36.6,113.2H35.124a18.645,18.645,0,0,0-4.723-7.477,18.645,18.645,0,0,0-4.723,7.477H24.2a19.29,19.29,0,0,1,5.116-8.363A17.663,17.663,0,0,0,18,100.8a18.1,18.1,0,1,0,11.413,32.173A19.29,19.29,0,0,1,24.3,124.61h1.476a18.645,18.645,0,0,0,4.723,7.477,17.643,17.643,0,0,0,4.723-7.477H36.7a19.29,19.29,0,0,1-5.116,8.363A18.046,18.046,0,0,0,61,118.9" transform="translate(0 -100.801)"/><g transform="translate(1.648 13.664)"><path class="b" d="M388,235l1.339-7h1.648l.206.721a2.406,2.406,0,0,1,1.854-.721l-.515,1.854c-.515,0-1.339-.1-1.957,1.957L389.957,235H388" transform="translate(-342.552 -226.139)"/><path class="b" d="M181.951,214.4H183.8l-.412,1.854h1.03l-.309,1.442h-.927l-.515,2.781c-.1.515,0,1.03,1.03.824l-.206,1.545a2.3,2.3,0,0,1-1.442.309,1.645,1.645,0,0,1-1.545-2.163l1.442-6.591" transform="translate(-159.971 -214.29)"/><path class="b" d="M214.683,231.914c.206-1.133.721-3.914-2.575-3.914-3.09,0-3.5,3.09-3.5,3.5A3.034,3.034,0,0,0,211.8,235a8.507,8.507,0,0,0,2.472-.309l.309-1.442a10.113,10.113,0,0,1-2.163.206c-.721,0-1.957,0-1.751-1.545h4.017" transform="translate(-184.701 -226.139)"/><path class="b" d="M142.75,228.951l.412-1.442a5.779,5.779,0,0,0-1.854-.309c-.309,0-2.575,0-2.884,1.648-.309,1.339.206,1.854.618,2.06.721.309,1.133.618,1.545.824a.535.535,0,0,1-.206,1.03,7.743,7.743,0,0,1-2.472-.206L137.6,234a9.237,9.237,0,0,0,2.266.206c.515,0,2.781.1,3.09-1.957a1.664,1.664,0,0,0-.618-1.751,8.513,8.513,0,0,0-1.339-.721c-.412-.206-.721-.824,0-1.03.309.1,1.236.1,1.751.206" transform="translate(-122.369 -225.442)"/><path class="b" d="M21.657,225.245,23.3,216.8H20.112l-2.266,5.15-.412-5.15H14.448L12.8,225.245h1.854l1.236-6.076.515,6.076h1.751l2.678-5.973L19.7,225.245h1.957" transform="translate(-12.8 -216.381)"/><path class="b" d="M89.882,228.445l-.309,1.545c.515,0,1.751-.206,2.369-.206s1.442-.1,1.133.927c-.515,0-3.914-.515-4.429,2.472a1.9,1.9,0,0,0,1.957,2.163,2.3,2.3,0,0,0,1.545-.412l.206.412H94.1l.721-3.811c.206-.927.515-3.193-2.678-3.193a5.9,5.9,0,0,0-2.266.1" transform="translate(-79.377 -226.378)"/><path class="b" d="M297.767,215.922a2.3,2.3,0,0,0-1.442-.309,2.546,2.546,0,0,0-2.266,2.266c-.309,2.06,1.03,2.987,2.987,2.369l.515,1.751a4.692,4.692,0,0,1-2.266.412c-1.957,0-4.12-1.751-3.193-5.355a4.555,4.555,0,0,1,4.326-3.5A3.168,3.168,0,0,1,299,214.686l-1.236,1.236" transform="translate(-257.875 -213.546)"/><path class="b" d="M427.938,216.278c-.412-.309-.618-.824-1.442-.824-1.03,0-2.678-.206-3.6,2.987-.618,2.163.618,4.017,1.957,4.017a3.885,3.885,0,0,0,1.648-.515l.206.515h2.06l1.648-8.857h-1.957l-.515,2.678" transform="translate(-372.809 -213.593)"/><path class="b" d="M339.482,228.445l-.309,1.545c.515,0,1.751-.206,2.369-.206s1.339-.1,1.133.927c-.515,0-3.914-.515-4.429,2.472a1.9,1.9,0,0,0,1.957,2.163,2.3,2.3,0,0,0,1.545-.412l.206.412H343.7l.721-3.811c.206-.927.515-3.193-2.678-3.193a5.872,5.872,0,0,0-2.266.1" transform="translate(-298.538 -226.378)"/></g><g transform="translate(10.49 16.824)"><path class="a" d="M224.8,239.636h2.369c.1-.721-.1-1.236-.824-1.236a1.46,1.46,0,0,0-1.545,1.236" transform="translate(-209.203 -238.4)"/><path class="a" d="M105.857,258.052a2.49,2.49,0,0,0-1.648.206c-.618.412-.824,1.133-.1,1.339a1.4,1.4,0,0,0,1.648-.824l.1-.721" transform="translate(-103.649 -255.477)"/><path class="a" d="M441.116,242.473a2.435,2.435,0,0,0-.1-1.751c-.618-.824-1.957-.206-2.369,1.339-.309,1.03.309,1.751.927,1.751.721,0,1.133-.515,1.545-1.339" transform="translate(-395.446 -240.104)"/><path class="a" d="M356.257,258.052a2.49,2.49,0,0,0-1.648.206c-.618.412-.824,1.133-.1,1.339a1.35,1.35,0,0,0,1.648-.824l.1-.721" transform="translate(-321.813 -255.477)"/></g><path class="b" d="M256,235.7l1.339-6.9h1.648l.206.721a2.406,2.406,0,0,1,1.854-.721l-.515,1.854c-.412,0-1.339-.1-1.957,1.957l-.618,3.193H256" transform="translate(-224.643 -213.226)"/><g transform="translate(1.03 -0.001)"><path class="c" d="M25.92,100.8A18.9,18.9,0,0,0,8,113.777H32.512a20.192,20.192,0,0,1,5.355-8.754A19.834,19.834,0,0,0,25.92,100.8Z" transform="translate(-8 -100.8)"/><path class="c" d="M214.544,141.6a18.839,18.839,0,0,0-4.944,7.827h9.887A19.517,19.517,0,0,0,214.544,141.6Z" transform="translate(-185.073 -136.348)"/><path class="c" d="M267.947,100.8A18.771,18.771,0,0,0,256,105.023a20.192,20.192,0,0,1,5.355,8.754h24.512A18.71,18.71,0,0,0,267.947,100.8Z" transform="translate(-226.927 -100.8)"/></g></g></svg>